<?xml version="1.0" encoding="UTF-8"?>
<!DOCTYPE svg PUBLIC "-//W3C//DTD SVG 1.1//EN" "http://www.w3.org/Graphics/SVG/1.1/DTD/svg11.dtd">
<!-- Creator: CorelDRAW Home & Student 2018 -->
<svg xmlns="http://www.w3.org/2000/svg" xml:space="preserve" width="347px" height="512px" version="1.1" style="shape-rendering:geometricPrecision; text-rendering:geometricPrecision; image-rendering:optimizeQuality; fillRule:evenodd; clipRule:evenodd"
viewBox="0 0 9880 14590"
 xmlns:xlink="http://www.w3.org/1999/xlink">
 <defs>
  <style type="text/css">
   <![CDATA[
    .fil0 {fill:#144C3B}
    .fil1 {fill:#7BB34B}
   ]]>
  </style>
 </defs>
 <g id="Layer_x0020_1">
  <metadata id="CorelCorpID_0Corel-Layer"/>
  <path class="fil0" d="M7680 6740c340,100 100,250 500,160 10,-240 -860,-1690 -2110,-1610 -600,40 -1040,290 -1330,570 -460,440 -10,940 140,1360 -1320,-540 -500,-4190 2020,-3400 1650,510 2680,2730 1430,4360 -1030,1340 -3380,1700 -4910,520 -2130,-1630 -220,-4490 -700,-5380l-510 1750c-150,670 -380,1280 -280,2050 320,2550 3700,3530 5870,2200 2560,-1580 1720,-4940 -370,-5840 -3270,-1400 -4830,3050 -2710,4330 510,310 1200,420 1850,150 700,-290 830,-510 1110,-1220z"/>
  <path class="fil1" d="M3590 10860c-260,-210 -230,-350 -670,-360 -490,-10 -440,180 -730,290 -480,-320 -420,-320 -1190,-270l20 640c350,20 1060,-30 770,520 -230,460 -560,-240 -440,900 390,60 640,-130 900,-340 280,160 530,340 990,350l20 -640c-260,-150 -310,-80 -600,-280l40 -410c380,-180 470,60 620,290 820,120 500,-190 870,-250 350,580 -410,780 -670,990l270 600 440 -100c370,1060 -1410,920 -2070,640 -720,-310 -1080,-970 -1430,-1650 -250,20 -480,100 -680,230 20,580 810,1460 1290,1790 820,550 2790,830 3550,-20 300,-330 350,-730 100,-1150 -380,-630 60,-380 80,-1090 20,-520 -200,-730 -470,-990 -840,-80 -580,190 -1010,310z"/>
  <path class="fil1" d="M7130 13690c190,-200 290,-230 620,-270l20 510c-280,-10 -430,-100 -640,-240zm-530 -2290c460,-180 2560,30 3280,-80l0 -520 -4370 10 0 500 380 100c50,650 -190,1510 470,1620 430,80 860,-550 1380,-610 20,620 40,340 -1360,1050 110,730 270,550 870,790 200,80 320,230 510,290 220,70 470,50 680,-30 70,-1370 -210,-1350 450,-1450 -20,560 -70,980 130,1430l530 -140c10,-300 -50,-580 -30,-880 10,-230 110,-530 80,-710 -110,-600 -830,-210 -1160,-180 30,-1320 -710,-860 -1340,-550 -570,280 -360,330 -460,200 -120,-150 -90,-610 -40,-840z"/>
  <path class="fil1" d="M2190 3700c130,-1530 -1090,-2680 -1220,-2960 520,160 1150,1150 1310,1720 50,170 70,300 110,450 20,90 20,130 50,210 50,140 -30,-40 40,90 0,20 10,40 20,50 0,0 10,20 20,30 520,-1170 -330,-3250 -2370,-3290 -600,1650 710,3600 2040,3700z"/>
  <path class="fil1" d="M2970 3200c180,-110 260,-290 380,-480 260,-400 810,-970 1360,-1010 -450,330 -550,340 -960,810 -210,240 -580,820 -620,1190 1660,120 2710,-2040 2120,-2410 -140,-100 -610,-40 -790,0 -770,140 -1470,940 -1490,1900z"/>
 </g>
</svg>
